<mxfile host="app.diagrams.net" modified="2023-04-27T04:41:00.565Z" agent="Mozilla/5.0 (Macintosh; Intel Mac OS X 10_15_7) AppleWebKit/537.36 (KHTML, like Gecko) Chrome/112.0.0.0 Safari/537.36" etag="uDw4cLpb9a2RKP29f41b" version="21.2.3" type="device">
  <diagram name="Page-1" id="-PojbC2jIWJwoqSKZhnb">
    <mxGraphModel dx="1434" dy="771" grid="1" gridSize="10" guides="1" tooltips="1" connect="1" arrows="1" fold="1" page="1" pageScale="1" pageWidth="850" pageHeight="1100" math="0" shadow="0">
      <root>
        <mxCell id="0" />
        <mxCell id="1" parent="0" />
        <mxCell id="33qoYoBusdxjY01V1G-h-1" value="" style="rounded=1;whiteSpace=wrap;html=1;" parent="1" vertex="1">
          <mxGeometry x="80" y="40" width="680" height="60" as="geometry" />
        </mxCell>
        <mxCell id="33qoYoBusdxjY01V1G-h-2" value="Cultured Beans Inventory Tracker" style="text;strokeColor=none;align=center;fillColor=none;html=1;verticalAlign=middle;whiteSpace=wrap;rounded=0;" parent="1" vertex="1">
          <mxGeometry x="95" y="55" width="620" height="30" as="geometry" />
        </mxCell>
        <mxCell id="33qoYoBusdxjY01V1G-h-3" value="" style="rounded=1;whiteSpace=wrap;html=1;" parent="1" vertex="1">
          <mxGeometry x="440" y="160" width="360" height="540" as="geometry" />
        </mxCell>
        <mxCell id="33qoYoBusdxjY01V1G-h-4" value="" style="rounded=1;whiteSpace=wrap;html=1;" parent="1" vertex="1">
          <mxGeometry x="40" y="160" width="360" height="540" as="geometry" />
        </mxCell>
        <mxCell id="33qoYoBusdxjY01V1G-h-7" value="" style="rounded=0;whiteSpace=wrap;html=1;" parent="1" vertex="1">
          <mxGeometry x="460" y="240" width="320" height="40" as="geometry" />
        </mxCell>
        <mxCell id="33qoYoBusdxjY01V1G-h-8" value="" style="rounded=0;whiteSpace=wrap;html=1;" parent="1" vertex="1">
          <mxGeometry x="460" y="290" width="320" height="40" as="geometry" />
        </mxCell>
        <mxCell id="33qoYoBusdxjY01V1G-h-9" value="" style="rounded=0;whiteSpace=wrap;html=1;" parent="1" vertex="1">
          <mxGeometry x="460" y="340" width="320" height="40" as="geometry" />
        </mxCell>
        <mxCell id="33qoYoBusdxjY01V1G-h-10" value="" style="rounded=0;whiteSpace=wrap;html=1;" parent="1" vertex="1">
          <mxGeometry x="460" y="390" width="320" height="40" as="geometry" />
        </mxCell>
        <mxCell id="33qoYoBusdxjY01V1G-h-11" value="name" style="text;strokeColor=none;align=center;fillColor=none;html=1;verticalAlign=middle;whiteSpace=wrap;rounded=0;" parent="1" vertex="1">
          <mxGeometry x="590" y="245" width="60" height="30" as="geometry" />
        </mxCell>
        <mxCell id="33qoYoBusdxjY01V1G-h-12" value="origin" style="text;strokeColor=none;align=center;fillColor=none;html=1;verticalAlign=middle;whiteSpace=wrap;rounded=0;" parent="1" vertex="1">
          <mxGeometry x="590" y="295" width="60" height="30" as="geometry" />
        </mxCell>
        <mxCell id="33qoYoBusdxjY01V1G-h-13" value="price" style="text;strokeColor=none;align=center;fillColor=none;html=1;verticalAlign=middle;whiteSpace=wrap;rounded=0;" parent="1" vertex="1">
          <mxGeometry x="590" y="345" width="60" height="30" as="geometry" />
        </mxCell>
        <mxCell id="33qoYoBusdxjY01V1G-h-14" value="roast" style="text;strokeColor=none;align=center;fillColor=none;html=1;verticalAlign=middle;whiteSpace=wrap;rounded=0;" parent="1" vertex="1">
          <mxGeometry x="590" y="395" width="60" height="30" as="geometry" />
        </mxCell>
        <mxCell id="33qoYoBusdxjY01V1G-h-18" value="Details" style="text;strokeColor=none;align=center;fillColor=none;html=1;verticalAlign=middle;whiteSpace=wrap;rounded=0;" parent="1" vertex="1">
          <mxGeometry x="590" y="200" width="60" height="30" as="geometry" />
        </mxCell>
        <mxCell id="33qoYoBusdxjY01V1G-h-21" value="Inventory" style="text;strokeColor=none;align=center;fillColor=none;html=1;verticalAlign=middle;whiteSpace=wrap;rounded=0;" parent="1" vertex="1">
          <mxGeometry x="190" y="190" width="60" height="30" as="geometry" />
        </mxCell>
        <mxCell id="33qoYoBusdxjY01V1G-h-23" value="Ecuadorian Magic" style="rounded=0;whiteSpace=wrap;html=1;" parent="1" vertex="1">
          <mxGeometry x="90" y="240" width="270" height="40" as="geometry" />
        </mxCell>
        <mxCell id="33qoYoBusdxjY01V1G-h-25" value="Columbian Danger" style="rounded=0;whiteSpace=wrap;html=1;" parent="1" vertex="1">
          <mxGeometry x="90" y="290" width="270" height="40" as="geometry" />
        </mxCell>
        <mxCell id="33qoYoBusdxjY01V1G-h-26" value="Civet Perfection" style="rounded=0;whiteSpace=wrap;html=1;" parent="1" vertex="1">
          <mxGeometry x="90" y="345" width="270" height="40" as="geometry" />
        </mxCell>
        <mxCell id="33qoYoBusdxjY01V1G-h-27" value="Guatemalan Satisfaction" style="rounded=0;whiteSpace=wrap;html=1;" parent="1" vertex="1">
          <mxGeometry x="90" y="395" width="270" height="40" as="geometry" />
        </mxCell>
        <mxCell id="33qoYoBusdxjY01V1G-h-28" value="Click name for details view" style="shape=note;whiteSpace=wrap;html=1;backgroundOutline=1;fontColor=#000000;darkOpacity=0.05;fillColor=#FFF9B2;strokeColor=none;fillStyle=solid;direction=west;gradientDirection=north;gradientColor=#FFF2A1;shadow=1;size=20;pointerEvents=1;" parent="1" vertex="1">
          <mxGeometry x="250" y="500" width="110" height="110" as="geometry" />
        </mxCell>
        <mxCell id="33qoYoBusdxjY01V1G-h-31" value="130 lbs" style="rounded=1;whiteSpace=wrap;html=1;" parent="1" vertex="1">
          <mxGeometry x="460" y="470" width="120" height="60" as="geometry" />
        </mxCell>
        <mxCell id="33qoYoBusdxjY01V1G-h-32" value="Sell 1 lb" style="rounded=1;whiteSpace=wrap;html=1;" parent="1" vertex="1">
          <mxGeometry x="660" y="470" width="120" height="60" as="geometry" />
        </mxCell>
      </root>
    </mxGraphModel>
  </diagram>
</mxfile>
